<svg width="715" height="122" viewBox="0 0 715 122" fill="none" xmlns="http://www.w3.org/2000/svg">
<path d="M127.083 46.5733C126.698 45.4424 125.738 44.622 124.569 44.4515L84.4488 38.6211L66.4985 2.26477C65.4621 0.149698 61.9578 0.149698 60.9213 2.26477L42.971 38.6211L2.86393 44.4515C1.68907 44.622 0.716783 45.4424 0.350485 46.5733C-0.00906062 47.7043 0.288027 48.9348 1.14047 49.7569L30.1692 78.053L23.3226 118.008C23.115 119.176 23.5944 120.351 24.5549 121.047C25.5153 121.742 26.7915 121.837 27.8397 121.286L63.715 102.419L99.6037 121.286C100.058 121.526 100.551 121.641 101.057 121.641C101.702 121.641 102.34 121.445 102.882 121.047C103.829 120.351 104.315 119.171 104.101 118.008L97.254 78.053L126.283 49.7569C127.145 48.9365 127.442 47.6992 127.083 46.5733Z" fill="#9E226A"/>
<path d="M274.216 46.5733C273.843 45.4424 272.871 44.622 271.703 44.4515L231.596 38.6211L213.646 2.26477C212.609 0.149698 209.105 0.149698 208.068 2.26477L190.118 38.6211L150.011 44.4515C148.836 44.622 147.864 45.4424 147.498 46.5733C147.131 47.7043 147.435 48.9348 148.288 49.7569L177.316 78.053L170.456 118.008C170.272 119.176 170.74 120.351 171.689 121.047C172.661 121.742 173.93 121.837 174.973 121.286L210.862 102.419L246.737 121.286C247.191 121.526 247.698 121.641 248.191 121.641C248.847 121.641 249.485 121.445 250.029 121.047C250.976 120.351 251.462 119.171 251.248 118.008L244.401 78.053L273.43 49.7569C274.281 48.9365 274.59 47.6992 274.216 46.5733Z" fill="#9E226A"/>
<path d="M422.879 46.5733C422.506 45.4424 421.534 44.622 420.366 44.4515L380.259 38.6211L362.309 2.26477C361.272 0.149698 357.768 0.149698 356.731 2.26477L338.781 38.6211L298.674 44.4515C297.499 44.622 296.527 45.4424 296.161 46.5733C295.794 47.7043 296.085 48.9348 296.951 49.7569L325.979 78.053L319.119 118.008C318.923 119.176 319.403 120.351 320.351 121.047C321.312 121.742 322.593 121.837 323.636 121.286L359.525 102.419L395.414 121.286C395.856 121.526 396.361 121.641 396.861 121.641C397.505 121.641 398.155 121.445 398.685 121.047C399.632 120.351 400.132 119.171 399.918 118.008L393.071 78.053L422.1 49.7569C422.942 48.9365 423.253 47.6992 422.879 46.5733Z" fill="#9E226A"/>
<path d="M567.057 46.5733C566.698 45.4424 565.726 44.622 564.556 44.4515L524.449 38.6211L506.498 2.26477C505.45 0.149698 501.958 0.149698 500.921 2.26477L482.971 38.6228L442.864 44.4532C441.677 44.6237 440.717 45.4441 440.35 46.575C439.984 47.706 440.274 48.9365 441.127 49.7586L470.169 78.0547L463.309 118.01C463.113 119.178 463.581 120.353 464.541 121.048C465.502 121.744 466.778 121.838 467.826 121.288L503.715 102.421L539.59 121.288C540.044 121.528 540.537 121.642 541.044 121.642C541.688 121.642 542.326 121.447 542.868 121.048C543.815 120.353 544.301 119.173 544.101 118.01L537.254 78.0547L566.283 49.7586C567.115 48.9365 567.424 47.6992 567.057 46.5733Z" fill="#9E226A"/>
<path d="M714.211 46.5733C713.838 45.4424 712.854 44.622 711.698 44.4515L671.577 38.6211L653.627 2.26477C652.591 0.149698 649.098 0.149698 648.05 2.26477L630.111 38.6211L589.991 44.4515C588.816 44.622 587.844 45.4424 587.477 46.5733C587.111 47.7043 587.415 48.9348 588.267 49.7569L617.296 78.053L610.449 118.008C610.254 119.176 610.721 120.351 611.682 121.047C612.642 121.742 613.918 121.837 614.953 121.286L650.842 102.419L686.731 121.286C687.185 121.526 687.678 121.641 688.184 121.641C688.829 121.641 689.467 121.445 690.009 121.047C690.956 120.351 691.442 119.171 691.227 118.008L684.393 78.053L713.41 49.7569C714.274 48.9365 714.571 47.6992 714.211 46.5733Z" fill="#9E226A"/>
</svg>
